<?xml version="1.0" encoding="UTF-8"?>
<svg version="1.1" xmlns="http://www.w3.org/2000/svg" width="20" height="22">
<path d="M0 0 C0.66 0 1.32 0 2 0 C2 0.66 2 1.32 2 2 C5.3 2 8.6 2 12 2 C12 1.34 12 0.68 12 0 C12.66 0 13.32 0 14 0 C14 0.66 14 1.32 14 2 C14.99 2 15.98 2 17 2 C17 8.6 17 15.2 17 22 C10.4 22 3.8 22 -3 22 C-3 15.4 -3 8.8 -3 2 C-2.01 2 -1.02 2 0 2 C0 1.34 0 0.68 0 0 Z M-1 4 C-1 4.99 -1 5.98 -1 7 C4.28 7 9.56 7 15 7 C15 6.01 15 5.02 15 4 C9.72 4 4.44 4 -1 4 Z M-1 9 C-1 12.63 -1 16.26 -1 20 C4.28 20 9.56 20 15 20 C15 16.37 15 12.74 15 9 C9.72 9 4.44 9 -1 9 Z " fill="#79808F" transform="translate(3,0)"/>
</svg>
