<?xml version="1.0" encoding="UTF-8"?>
<svg version="1.1" xmlns="http://www.w3.org/2000/svg" width="64" height="64">
<path d="M0 0 C0.99 0 1.98 0 3 0 C3 2.64 3 5.28 3 8 C10.26 8 17.52 8 25 8 C25 5.36 25 2.72 25 0 C25.99 0 26.98 0 28 0 C28 2.64 28 5.28 28 8 C29.546875 7.87625 29.546875 7.87625 31.125 7.75 C35.6504277 8.04196308 37.52200909 9.16907717 41 12 C43.03172266 15.04758399 43.2544052 15.68442721 43.29052734 19.11669922 C43.30328705 19.94120575 43.31604675 20.76571228 43.32919312 21.61520386 C43.33141876 22.50273346 43.33364441 23.39026306 43.3359375 24.3046875 C43.3425943 25.22081818 43.3492511 26.13694885 43.35610962 27.08084106 C43.36623545 29.01920565 43.37092666 30.95760509 43.37060547 32.89599609 C43.37497349 35.85703233 43.41127909 38.81657179 43.44921875 41.77734375 C43.455088 43.66145324 43.45905667 45.54556981 43.4609375 47.4296875 C43.47530853 48.31316864 43.48967957 49.19664978 43.50448608 50.10690308 C43.47444827 54.16259831 43.34083577 56.43031869 41.22119141 59.97314453 C37.9084688 62.99603121 35.27210581 64.2429668 30.78564453 64.29052734 C29.96444122 64.30328705 29.14323792 64.31604675 28.29714966 64.32919312 C27.4179184 64.33141876 26.53868713 64.33364441 25.6328125 64.3359375 C24.26429642 64.3459227 24.26429642 64.3459227 22.86813354 64.35610962 C20.93994154 64.3662245 19.0117146 64.370927 17.08349609 64.37060547 C14.14231292 64.37497428 11.20263611 64.41129367 8.26171875 64.44921875 C6.38542178 64.45508813 4.50911771 64.45905671 2.6328125 64.4609375 C1.7576297 64.47530853 0.8824469 64.48967957 -0.01925659 64.50448608 C-5.49696551 64.46375442 -8.68236814 63.69426175 -13 60 C-15.03172266 56.95241601 -15.2544052 56.31557279 -15.29052734 52.88330078 C-15.30328705 52.05879425 -15.31604675 51.23428772 -15.32919312 50.38479614 C-15.33141876 49.49726654 -15.33364441 48.60973694 -15.3359375 47.6953125 C-15.3425943 46.77918182 -15.3492511 45.86305115 -15.35610962 44.91915894 C-15.36623545 42.98079435 -15.37092666 41.04239491 -15.37060547 39.10400391 C-15.37497349 36.14296767 -15.41127909 33.18342821 -15.44921875 30.22265625 C-15.455088 28.33854676 -15.45905667 26.45443019 -15.4609375 24.5703125 C-15.47530853 23.68683136 -15.48967957 22.80335022 -15.50448608 21.89309692 C-15.47366193 17.73123099 -15.36391382 15.57300425 -13.08447266 11.98388672 C-9.68130766 8.74494097 -8.02572588 8.03419086 -3.25 7.875 C-1.64125 7.936875 -1.64125 7.936875 0 8 C0 5.36 0 2.72 0 0 Z M-11 16 C-11 16.66 -11 17.32 -11 18 C5.5 18 22 18 39 18 C37.35143175 13.87596527 37.35143175 13.87596527 34 12 C31.01294045 11.77935438 28.12150554 11.67194579 25.1328125 11.6640625 C24.26107391 11.6574057 23.38933533 11.6507489 22.49118042 11.64389038 C20.64697377 11.6337661 18.8027305 11.62907329 16.95849609 11.62939453 C14.14228625 11.62502681 11.3276507 11.58872119 8.51171875 11.55078125 C6.71875535 11.54491188 4.92578452 11.54094329 3.1328125 11.5390625 C2.29307892 11.52469147 1.45334534 11.51032043 0.58816528 11.49551392 C-4.50039757 11.53510984 -7.37261727 12.0586297 -11 16 Z M-12 22 C-12.04125 26.846875 -12.0825 31.69375 -12.125 36.6875 C-12.14320801 38.20819092 -12.16141602 39.72888184 -12.18017578 41.2956543 C-12.1851709 42.50133057 -12.19016602 43.70700684 -12.1953125 44.94921875 C-12.20578613 46.17987061 -12.21625977 47.41052246 -12.22705078 48.6784668 C-11.93927994 52.88827565 -11.23386228 55.59383209 -8.43530273 58.78320312 C-4.70811017 60.64549162 -1.14894096 60.46776197 2.96484375 60.46875 C3.83516739 60.47636353 4.70549103 60.48397705 5.60218811 60.49182129 C7.44041072 60.50261262 9.27869459 60.50547932 11.11694336 60.50097656 C13.92470869 60.50000443 16.72973868 60.54163003 19.53710938 60.5859375 C21.32551515 60.59114494 23.1139304 60.59383269 24.90234375 60.59375 C26.15723854 60.6183429 26.15723854 60.6183429 27.43748474 60.64343262 C31.76667801 60.59227982 33.48412342 60.40321581 37.00610352 57.65039062 C40.17682108 53.43570838 40.11936655 50.28987347 40.09765625 45.14453125 C40.09515869 43.93385986 40.09266113 42.72318848 40.09008789 41.47583008 C40.08098389 39.93693115 40.07187988 38.39803223 40.0625 36.8125 C40.041875 31.924375 40.02125 27.03625 40 22 C22.84 22 5.68 22 -12 22 Z " fill="#F95151" transform="translate(18,0)"/>
</svg>
