<svg width="150" height="48" viewBox="0 0 150 48" fill="none" xmlns="http://www.w3.org/2000/svg">
<path d="M93.5881 40.5833L93.1729 40.1667L93.2227 32.3667C93.2725 24.7833 93.2891 24.55 93.6546 23.5833C94.0865 22.4167 95.1662 20.9167 96.0964 20.15C96.4619 19.8667 97.2426 19.4 97.824 19.1167C98.7376 18.6833 99.1363 18.6 100.615 18.5333C103.422 18.4 105.382 19.1667 107.11 21.0667C110.382 24.65 109.452 31.1167 105.299 33.55C102.774 35.0333 99.3024 34.7 96.8938 32.7333L96.3456 32.2833V35.95C96.3456 40.6667 96.2293 41 94.6845 41C94.1861 41 93.9037 40.9 93.5881 40.5833ZM102.658 31.4833C103.787 31.1333 104.851 30.1833 105.482 28.9333C106.013 27.9 106.063 27.65 106.063 26.4333C106.047 24.85 105.714 23.9333 104.718 22.8333C103.721 21.7333 102.658 21.2667 101.163 21.25C99.1197 21.25 97.5915 22.2333 96.6778 24.0833C96.0964 25.2667 96.0964 27.5167 96.6612 28.7833C97.1097 29.7833 98.2061 30.8833 99.2194 31.35C100.017 31.7 101.694 31.7667 102.658 31.4833Z" fill="black"/>
<path d="M78.6045 34.4167C75.7142 33.7833 72.9567 31.5833 72.6411 29.6167C72.475 28.5 73.754 27.8 74.9667 28.35C75.166 28.45 75.5481 28.85 75.7806 29.25C77.2092 31.6167 81.2457 32.5167 84.053 31.0833C86.3288 29.9167 86.6942 27.4833 84.8836 25.65C84.0032 24.7667 82.8238 24.3167 80.5813 24C78.6378 23.7333 77.2756 23.2667 76.0962 22.4833C74.2192 21.2333 73.4218 19.75 73.4218 17.5167C73.4218 16.4 73.4883 16.0833 73.9368 15.2C75.0996 12.8667 77.5913 11.6667 81.3122 11.6667C84.2524 11.6667 85.6643 12.25 87.475 14.2167C88.8703 15.7333 89.1527 16.5833 88.5215 17.4C88.2391 17.75 88.0398 17.8333 87.4251 17.8333C86.7773 17.8333 86.6112 17.75 86.2291 17.3C84.9667 15.7667 84.0697 15.0167 83.2059 14.7667C82.0763 14.4167 80.2657 14.4333 79.053 14.7667C76.7441 15.4167 75.7972 17.4333 76.9268 19.2667C77.6245 20.4 79.0198 20.95 82.857 21.5667C84.7839 21.8667 86.279 22.55 87.3421 23.6167C88.5547 24.8333 88.9202 25.75 89.0032 27.75C89.0863 29.8 88.7374 30.8833 87.6079 32.15C85.7972 34.1667 81.9268 35.1333 78.6045 34.4167Z" fill="black"/>
<path d="M40.8969 34.25C39.7175 33.9167 38.7042 33.3 37.9069 32.4333C36.3122 30.7 36.0464 29.5 36.0464 23.7833V19.4667L36.5281 18.9833C37.1593 18.3667 37.9899 18.3333 38.6544 18.9L39.1195 19.3L39.2025 24.0333C39.3022 29.3833 39.3188 29.4833 40.6311 30.65C41.5447 31.45 42.5248 31.7333 44.0198 31.6333C45.4318 31.5333 46.4949 30.95 47.259 29.85L47.7573 29.1333L47.8404 24.2C47.8902 21.4667 47.9733 19.1667 48.0397 19.0667C48.2723 18.7167 49.1527 18.4667 49.7507 18.5667C50.8471 18.7833 50.8304 18.6333 50.8304 26.4667V33.5167L50.4152 33.9167C49.6012 34.75 47.8404 34.2167 47.8404 33.15C47.8404 32.8167 47.8238 32.8 47.475 33.0667C47.259 33.2167 46.6112 33.5833 46.0298 33.8667C45.1162 34.3167 44.7673 34.4 43.372 34.45C42.3088 34.4833 41.4783 34.4167 40.8969 34.25Z" fill="black"/>
<path d="M61.6279 34.4C58.6877 33.8333 56.2624 31.7667 55.4485 29.1167C54.9501 27.5 54.9501 25.3667 55.4485 23.75C56.0963 21.6167 57.7574 19.7833 59.7508 18.9833C60.5814 18.6333 60.9966 18.5833 62.8737 18.5833C64.8671 18.5833 65.0996 18.6167 65.98 19.0333C68.4219 20.1833 69.8671 22.5833 69.9833 25.65C70.0332 27.6 70.3654 27.5 63.6046 27.5C57.2093 27.5 57.6578 27.3833 58.372 28.9167C58.8206 29.9 59.8671 30.9 60.9468 31.3833C61.5282 31.6667 62.0431 31.75 63.1395 31.75C64.4518 31.75 64.6511 31.7 65.7973 31.1167C67.2591 30.3833 68.0398 30.3167 68.5714 30.8833C69.0531 31.4 69.0531 32.2167 68.5714 32.6667C68.0897 33.1167 67.1428 33.6167 65.9468 34.0333C65.0498 34.35 62.5083 34.5667 61.6279 34.4ZM67.0764 24.55C66.794 23.5333 66.3455 22.7667 65.6478 22.1333C64.8006 21.3667 63.9701 21.0833 62.6245 21.1C60.3654 21.1333 58.5714 22.55 58.0564 24.7167L57.9402 25.1667H62.5913H67.2425L67.0764 24.55Z" fill="black"/>
<path d="M118.09 34.2C116.877 33.8667 115.366 33.0167 114.618 32.25C112.359 29.9 111.811 25.7833 113.306 22.5667C113.804 21.5333 115.233 20 116.229 19.4667C117.675 18.6833 118.787 18.45 120.847 18.5333C122.492 18.6 122.807 18.6667 123.837 19.1333C126.445 20.3667 127.841 22.3167 128.256 25.2667C128.804 29.2333 126.778 32.8 123.273 34.0333C121.927 34.5 119.502 34.5833 118.09 34.2ZM122.791 31.1167C124.485 30.1167 125.332 28.5167 125.316 26.3333C125.299 24.2 124.203 22.4167 122.442 21.6C121.263 21.0667 119.469 21.1167 118.239 21.7167C117.176 22.25 116.395 23.05 115.88 24.15C115.598 24.7667 115.532 25.2333 115.532 26.5C115.532 27.9 115.581 28.1833 115.98 28.9167C116.528 29.95 117.459 30.8833 118.439 31.3333C119.552 31.85 121.728 31.75 122.791 31.1167Z" fill="black"/>
<path d="M119.551 28.7667C118.754 28.4667 118.521 28.2833 118.206 27.6C117.159 25.3833 119.452 23.1667 121.594 24.3167C122.375 24.7333 122.824 25.5333 122.824 26.5333C122.824 28.2167 121.163 29.35 119.551 28.7667Z" fill="black"/>
<path d="M7.90699 33.8333L7.4751 33.3V23.05V12.8L7.97344 12.3167L8.47178 11.8167L13.0731 11.8667C17.4419 11.9167 17.7409 11.95 18.6545 12.3167C19.917 12.8167 20.8804 13.5667 21.5449 14.5667C22.2425 15.5833 22.4751 16.4667 22.4751 17.9167C22.4751 19.4 22.0266 20.4 20.8804 21.4167C20.4319 21.8333 20.0831 22.2 20.1163 22.2167C20.1495 22.2333 20.6146 22.4667 21.1462 22.7333C23.0233 23.6667 23.8372 25.1833 23.8206 27.6667C23.7874 30.6 22.3588 32.6833 19.5847 33.8667C18.7209 34.2333 18.4552 34.25 13.5216 34.3L8.3555 34.35L7.90699 33.8333ZM17.8572 31.25C19.7342 30.75 20.7641 29.4667 20.7641 27.5667C20.7641 26.1333 20.2824 25.2833 19.103 24.6L18.1894 24.0833L14.4186 24.0333L10.6312 23.9833V27.7333V31.5H13.7542C16.0299 31.5 17.1429 31.4333 17.8572 31.25ZM17.309 20.8333C18.6545 20.45 19.4352 19.35 19.4352 17.8333C19.4352 16.5167 18.8206 15.6167 17.5748 15.0833C17.093 14.8833 16.2625 14.8333 13.7874 14.8333H10.6312V17.9167V21H13.6711C15.3322 21 16.9768 20.9167 17.309 20.8333Z" fill="black"/>
<path d="M29.7676 33.9167C28.8041 33.4167 28.2726 32.8167 27.7078 31.5667C27.3257 30.75 27.3257 30.7167 27.2759 21.7833L27.2261 12.8167L27.7244 12.3333C28.3556 11.6833 29.236 11.65 29.8174 12.25L30.2327 12.65V20.95C30.2327 26.4167 30.2992 29.4833 30.4154 29.9167C30.6978 30.95 31.1463 31.3333 32.0766 31.3333C33.0732 31.3333 33.555 31.7 33.6713 32.6C33.7377 33.15 33.6879 33.35 33.339 33.75C32.9736 34.1833 32.8075 34.25 31.7942 34.3C30.8141 34.35 30.5151 34.3 29.7676 33.9167Z" fill="black"/>
<path d="M136.08 33.8333C134.95 33.25 134.17 32.4667 133.655 31.35C133.339 30.6333 133.306 30.25 133.256 26.1333L133.206 21.6667H132.16C130.93 21.6667 130.565 21.3833 130.565 20.45C130.565 19.5 131.013 19.1667 132.226 19.1667H133.223V16.8167C133.223 15.5333 133.289 14.3333 133.389 14.1667C133.605 13.7667 134.552 13.45 135.116 13.6C135.366 13.65 135.698 13.9 135.881 14.1167C136.18 14.5 136.213 14.8 136.213 16.85V19.1667H137.675C139.502 19.1667 139.867 19.3667 139.867 20.4C139.867 21.4833 139.568 21.6667 137.741 21.6667H136.213V25.5C136.213 29.7333 136.279 30.1 137.193 30.8833C137.641 31.2667 137.891 31.3333 138.721 31.3333C139.552 31.3333 139.784 31.4 140.116 31.75C140.532 32.15 140.665 32.9667 140.432 33.5833C140.249 34.05 139.435 34.3333 138.239 34.3333C137.293 34.3333 136.91 34.25 136.08 33.8333Z" fill="black"/>
<path d="M118.09 34.2C116.877 33.8667 115.366 33.0167 114.618 32.25C112.359 29.9 111.811 25.7833 113.306 22.5667C113.804 21.5333 115.233 20 116.229 19.4667C117.675 18.6833 118.787 18.45 120.847 18.5333C122.492 18.6 122.807 18.6667 123.837 19.1333C126.445 20.3667 127.841 22.3167 128.256 25.2667C128.804 29.2333 126.778 32.8 123.273 34.0333C121.927 34.5 119.502 34.5833 118.09 34.2ZM122.791 31.1167C124.485 30.1167 125.332 28.5167 125.316 26.3333C125.299 24.2 124.203 22.4167 122.442 21.6C121.263 21.0667 119.469 21.1167 118.239 21.7167C117.176 22.25 116.395 23.05 115.88 24.15C115.598 24.7667 115.532 25.2333 115.532 26.5C115.532 27.9 115.581 28.1833 115.98 28.9167C116.528 29.95 117.459 30.8833 118.439 31.3333C119.552 31.85 121.728 31.75 122.791 31.1167Z" fill="#3CA8F0"/>
<path d="M119.552 28.7667C118.754 28.4667 118.522 28.2833 118.206 27.6C117.16 25.3833 119.452 23.1667 121.595 24.3167C122.376 24.7333 122.824 25.5333 122.824 26.5333C122.824 28.2167 121.163 29.35 119.552 28.7667Z" fill="#3CA8F0"/>
</svg>
